<?xml version="1.0" standalone="no"?>
<!DOCTYPE svg PUBLIC "-//W3C//DTD SVG 20010904//EN"
 "http://www.w3.org/TR/2001/REC-SVG-20010904/DTD/svg10.dtd">
<svg version="1.0" xmlns="http://www.w3.org/2000/svg"
 width="83.000000pt" height="85.000000pt" viewBox="0 0 83.000000 85.000000"
 preserveAspectRatio="xMidYMid meet">
<metadata>
Created by potrace 1.16, written by Peter Selinger 2001-2019
</metadata>
<g transform="translate(0.000000,85.000000) scale(0.100000,-0.100000)"
fill="#664de5" stroke="none">
<path d="M163 543 c4 -168 9 -192 48 -250 43 -62 137 -112 212 -113 30 0 107
22 107 31 0 3 -12 14 -28 26 -46 34 -80 109 -91 202 -16 127 -69 203 -165 235
-91 31 -88 36 -83 -131z"/>
<path d="M534 530 c-54 -21 -70 -110 -33 -177 44 -80 88 -108 117 -76 27 29
62 119 62 159 0 72 -77 122 -146 94z"/>
</g>
</svg>
