<?xml version="1.0" standalone="no"?>
<!DOCTYPE svg PUBLIC "-//W3C//DTD SVG 20010904//EN"
 "http://www.w3.org/TR/2001/REC-SVG-20010904/DTD/svg10.dtd">
<svg version="1.0" xmlns="http://www.w3.org/2000/svg"
 width="120.000000pt" height="102.000000pt" viewBox="0 0 120.000000 102.000000"
 preserveAspectRatio="xMidYMid meet">

<g transform="translate(0.000000,102.000000) scale(0.100000,-0.100000)"
fill="#664de5" stroke="none">
<path d="M550 903 c-105 -18 -186 -60 -247 -126 -54 -59 -80 -110 -98 -197
-13 -64 -13 -78 1 -143 82 -365 539 -437 728 -115 107 183 29 440 -164 538
-38 19 -160 51 -185 48 -5 0 -21 -3 -35 -5z m143 -327 c3 -8 -23 -41 -62 -80
l-67 -66 -37 38 c-37 38 -47 62 -25 62 7 0 24 -11 38 -25 l26 -25 54 55 c58
59 65 63 73 41z"/>
</g>
</svg>
